# xmcd
#
# Track frame offsets: 
#        187
#        15310
#        27232
#        38197
#        49195
#        60512
#        81012
#        104862
#        123145
#        135385
#        149592
#        162447
#        174065
#        187772
#        201102
#        221347
#        237230
#        249647
#        260892
#
# Disc length: 3653 seconds
#
# Revision: 5
# Processed by: cddbd v1.5.2PL0 Copyright (c) Steve Scherf et al.
# Submitted via: ExactAudioCopy v1.0b4
#
DISCID=040e4313
DTITLE=Various Artist - Country Greatest  CD 2
DYEAR=1995
DGENRE=Country
TTITLE0=Kenny Rogers - For The Good Times
TTITLE1=Skeeter Davis - The End Of The World
TTITLE2=Billie Jo Spears - Here You Come Again
TTITLE3=Roger Miller - King Of The Road
TTITLE4=Jim Croce - I'll Have To Say I Love You In A Song
TTITLE5=Pussycat - Mississippi
TTITLE6=Don McLean - Vincent
TTITLE7=Dr Hook - Sylvia's Mother
TTITLE8=Freddy Fender - Wasted Days And Wasted Nights
TTITLE9=The Bellamy Brothers - If I Said You Had A Beautiful Body
TTITLE10=Frankie Laine - Moonlight Gamler
TTITLE11=Marie Williams - Don't It Make My Brown Eyes Blue
TTITLE12=The Kingston Trio - Tom Dooley
TTITLE13=Jimmy Dean - Big Bad John
TTITLE14=Marianne Flynner - Country Girl
TTITLE15=Toni Willé - Desperado
TTITLE16=Dolly Parton - Makin' Believe
TTITLE17=Willie Nelson - Chase The Moon
TTITLE18=Hank Locklin - Please Help Me I'm Falling
EXTD=ID3G: 2
EXTT0=Kenny Rogers\n
EXTT1=Skeeter Davis\n
EXTT2=Billie Joe Spears\n
EXTT3=Roger Miller\n
EXTT4=Jime Croce\n
EXTT5=Pussycat\n
EXTT6=Don McLean\n
EXTT7=Dr. Hook\n
EXTT8=Freddy Fender\n
EXTT9=The Bellamy Brothers\n
EXTT10=Frankie Laine\n
EXTT11=Marie Williams\n
EXTT12=The Kingston Trio\n
EXTT13=Jimmy Dean\n
EXTT14=Marianne Flynner\n
EXTT15=Toni Will \n
EXTT16=Dolly Parton\n
EXTT17=Willie Nelson\n
EXTT18=Hank Locklin\n
PLAYORDER=
